<svg width="48" height="49" viewBox="0 0 48 49" fill="none" xmlns="http://www.w3.org/2000/svg">
<path d="M37.8999 30.3484C36.9579 28.3844 33.5878 25.6584 30.3319 23.0244C28.5159 21.5564 26.7999 20.1684 25.7059 19.0744C25.4319 18.7984 25.0219 18.7104 24.6599 18.8404C23.986 19.0844 23.5699 19.2724 23.242 19.4184C22.742 19.6424 22.574 19.7184 21.8999 19.7864C21.6019 19.8164 21.334 19.9764 21.1679 20.2244C19.7539 22.3383 18.2899 22.1583 17.3119 21.8304C16.9999 21.7264 16.9439 21.5924 16.9139 21.4644C16.7039 20.5864 17.758 18.5424 19.1239 17.1764C22.3739 13.9244 24.0499 13.1103 27.5899 14.6924C31.6059 16.4883 35.6299 17.8944 35.6699 17.9084C36.196 18.0903 36.7619 17.8143 36.9439 17.2923C37.1239 16.7703 36.8499 16.2003 36.3279 16.0184C36.2878 16.0044 32.3439 14.6264 28.4079 12.8643C23.8219 10.8143 21.3058 12.1643 17.7118 15.7604C16.3438 17.1284 14.4858 19.8963 14.9658 21.9264C15.1718 22.7904 15.7798 23.4304 16.6838 23.7284C18.9498 24.4764 21.0177 23.7603 22.5578 21.7164C23.1938 21.6184 23.5398 21.4744 24.0597 21.2404C24.2477 21.1564 24.4677 21.0584 24.7598 20.9404C25.9038 22.0144 27.4478 23.2644 29.0738 24.5784C32.0138 26.9564 35.3478 29.6524 36.0978 31.2124C36.4678 31.9824 36.0698 32.4844 35.7998 32.7144C35.4038 33.0544 34.8618 33.1624 34.5678 32.9564C34.2438 32.7344 33.8218 32.7204 33.4878 32.9203C33.1518 33.1203 32.9638 33.4983 33.0058 33.8864C33.0738 34.5224 32.4918 34.8864 32.2398 35.0124C31.5998 35.3364 30.9318 35.2804 30.6818 35.0484C30.4017 34.7884 29.9997 34.7124 29.6438 34.8444C29.2878 34.9784 29.0397 35.3064 29.0037 35.6863C28.9437 36.3423 28.4577 36.9723 27.8237 37.2183C27.5177 37.3343 27.0737 37.4043 26.6757 37.0403C26.4278 36.8163 26.0837 36.7303 25.7618 36.8083C25.4358 36.8882 25.1738 37.1243 25.0598 37.4383C25.0218 37.5383 24.9357 37.7783 23.9997 37.7783C23.3337 37.7783 22.1357 37.3283 21.5498 36.9403C20.8478 36.4783 16.4457 33.1943 12.6438 30.0103C12.1098 29.5603 11.1858 28.5962 10.3698 27.7442C9.64578 26.9882 8.98381 26.3023 8.64378 26.0143C8.21778 25.6543 7.58778 25.7083 7.23378 26.1323C6.87781 26.5543 6.92975 27.1863 7.35181 27.5423C7.66184 27.8043 8.26184 28.4383 8.92381 29.1283C9.81584 30.0602 10.7378 31.0243 11.3578 31.5443C15.0819 34.6623 19.5579 38.0283 20.4498 38.6143C21.1858 39.0983 22.7718 39.7783 23.9998 39.7783C24.9858 39.7783 25.7439 39.5522 26.2698 39.1103C26.9738 39.3843 27.7738 39.3863 28.5438 39.0863C29.4538 38.7343 30.2018 38.0243 30.6258 37.1643C31.4138 37.3323 32.3158 37.2143 33.1358 36.8024C33.9378 36.3984 34.5177 35.7804 34.8057 35.0583C35.6018 35.1003 36.4217 34.8183 37.0997 34.2363C38.2479 33.2544 38.5638 31.7264 37.8999 30.3484Z" fill="white"/>
<path d="M20 13.7786H11C10.448 13.7786 10 14.2266 10 14.7786C10 15.3306 10.448 15.7786 11 15.7786H20C20.552 15.7786 21.0001 15.3306 21.0001 14.7786C21.0001 14.2266 20.552 13.7786 20 13.7786Z" fill="white"/>
<path d="M40.8299 28.2204C40.5199 27.7624 39.8999 27.6364 39.4419 27.9484L36.518 29.9124C36.06 30.2204 35.9379 30.8424 36.246 31.3003C36.44 31.5864 36.756 31.7424 37.078 31.7424C37.2681 31.7424 37.462 31.6884 37.6341 31.5724L40.558 29.6084C41.0159 29.3004 41.1379 28.6785 40.8299 28.2204Z" fill="white"/>
<path d="M34.622 32.9926C33.906 32.4286 30.704 29.1506 28.724 27.0866C28.3419 26.6866 27.708 26.6726 27.3099 27.0566C26.9099 27.4386 26.8979 28.0726 27.2799 28.4706C27.794 29.0066 32.3279 33.7326 33.3819 34.5647C33.5639 34.7087 33.7839 34.7787 33.9999 34.7787C34.2939 34.7787 34.5879 34.6467 34.7879 34.3967C35.13 33.9646 35.056 33.3346 34.622 32.9926Z" fill="white"/>
<path d="M30.626 34.9985C29.4279 34.0405 26.418 30.8425 25.7379 30.1025C25.3619 29.6945 24.7319 29.6705 24.3239 30.0425C23.9179 30.4165 23.8899 31.0505 24.2639 31.4566C24.2999 31.4945 27.8919 35.3726 29.3759 36.5606C29.5599 36.7066 29.7819 36.7786 29.9999 36.7786C30.2919 36.7786 30.5839 36.6485 30.7819 36.4046C31.126 35.9725 31.056 35.3425 30.626 34.9985Z" fill="white"/>
<path d="M26.6461 37.0126C25.2201 35.8106 22.3021 32.7046 21.7321 32.0946C21.3541 31.6906 20.72 31.6686 20.318 32.0466C19.9141 32.4246 19.894 33.0565 20.27 33.4606C21.0901 34.3386 23.882 37.2986 25.3561 38.5426C25.5441 38.7006 25.7721 38.7786 26.0001 38.7786C26.284 38.7786 26.5681 38.6566 26.7661 38.4226C27.1221 37.9986 27.0681 37.3686 26.6461 37.0126Z" fill="white"/>
<path d="M11.688 12.0524C9.97397 10.4284 3.12 9.90238 1.06003 9.78041C0.776062 9.76644 0.514031 9.86038 0.314062 10.0504C0.114 10.2384 0 10.5024 0 10.7784V28.7784C0 29.3304 0.448031 29.7784 1.00003 29.7784H7.00003C7.43203 29.7784 7.81603 29.5005 7.95 29.0884C8.09597 28.6404 11.542 18.0645 11.996 12.8644C12.022 12.5604 11.91 12.2604 11.688 12.0524ZM6.27 27.7785H1.99997V11.8504C5.214 12.1044 8.682 12.6564 9.942 13.2684C9.41203 17.6484 7.014 25.4304 6.27 27.7785Z" fill="white"/>
<path d="M47 11.7786C39.148 11.7786 34.792 13.7886 34.61 13.8726C34.35 13.9945 34.156 14.2206 34.076 14.4946C33.996 14.7686 34.036 15.0626 34.186 15.3066C35.422 17.2966 39.292 28.3486 40.036 31.0445C40.156 31.4785 40.55 31.7785 41 31.7785H47C47.552 31.7785 48 31.3305 48 30.7785V12.7785C48 12.2245 47.552 11.7786 47 11.7786ZM46.0001 29.7785H41.748C40.8 26.6905 38 18.6385 36.438 15.3106C37.964 14.7926 41.2421 13.9026 46.0001 13.7906V29.7785Z" fill="white"/>
</svg>
